# xmcd CD database file
#
# Track frame offsets:
#	150
#	26242
#	46119
#	72045
#	91434
#	105919
#	119566
#	132924
#	158339
#	175046
#	198050
#
# Disc length: 3336 seconds
#
# Revision: 1
# Processed by: cddbd v1.5.2PL0 Copyright (c) Steve Scherf et al.
# Submitted via: CDex 1.77
#
DISCID=810d060b
DTITLE=Paco de Lucia - The very best Of - CD2
DYEAR=2015
DGENRE=Jazz
TTITLE0=Cepa Andaluza
TTITLE1=Danza
TTITLE2=Cueva Del Gato
TTITLE3=Cana De Azucar
TTITLE4=Plaza De San Juan
TTITLE5=Taconeo Gitano
TTITLE6=Zorongo Gitano
TTITLE7=Luzia
TTITLE8=Gitanos Trianeros
TTITLE9=Gloria Al Nino Ricardo
TTITLE10=Rodrigo: Concierto De Aranjuez, Adagio
EXTD=YEAR: 2015
EXTT0=
EXTT1=
EXTT2=
EXTT3=
EXTT4=
EXTT5=
EXTT6=
EXTT7=
EXTT8=
EXTT9=
EXTT10=
PLAYORDER=
